<svg width="514" height="365" viewBox="0 0 514 365" fill="none" xmlns="http://www.w3.org/2000/svg">
<g clip-path="url(#clip0_26650_259546)">
<path fill-rule="evenodd" clip-rule="evenodd" d="M331.759 205.65C328.101 210.41 325.019 215.178 322.437 219.085C322.781 225.799 323.108 231.85 323.573 236.936C328.617 292.073 330.424 324.711 330.063 326.923C329.701 329.144 320.32 302.531 320.32 302.531L317.436 314.882L311.661 304.743C311.661 304.743 311.308 303.477 310.947 311.396C310.585 319.323 304.087 336.434 304.087 338.654C304.087 340.875 299.043 326.923 299.043 326.923C299.043 326.923 290.384 355.128 290.384 358.296C290.384 361.463 286.055 343.406 284.609 336.115C283.172 328.825 279.565 322.49 279.565 322.49C279.565 322.49 275.589 338.964 275.95 344.034C276.312 349.103 273.429 341.503 263.333 325.976C253.228 310.449 251.782 296.506 251.782 296.506C251.782 296.506 243.132 304.114 241.324 308.865C239.525 313.617 238.079 295.877 238.079 293.657C238.079 291.436 234.473 294.604 229.421 305.698C224.368 316.784 215.357 335.797 215.357 339.601C215.357 343.406 207.06 326.613 207.06 326.613C207.06 326.613 204.168 352.589 204.891 355.128C205.614 357.659 196.955 339.601 196.232 334.213C195.518 328.825 194.072 313.298 194.072 313.298C194.072 313.298 187.22 317.102 183.253 321.854C179.663 326.157 197.032 281.435 193.426 222.649C185.37 209.669 171.53 194.659 160.711 179.837C148.084 162.546 145.339 152.794 148.489 148.817C151.648 144.832 154.531 152.105 164.145 158.698C170.729 163.217 181.118 167.28 190.095 169.397C192.419 123.513 211.613 80.5894 245.998 79.9181C294.895 78.9627 311.498 121.636 317.936 164.913C326.302 162.563 334.461 159.413 340.951 155.677C351.933 149.36 364.973 133.988 364.973 144.695C364.973 155.402 343.559 190.269 331.759 205.65Z" fill="#D6D6D6" stroke="black" stroke-width="1.72141" stroke-miterlimit="10"/>
<path fill-rule="evenodd" clip-rule="evenodd" d="M236.203 112.126C230.652 115.371 224.652 117.548 218.266 118.529C217.466 123.478 219.944 128.367 224.489 130.132C229.774 132.189 235.859 129.237 238.062 123.547C239.655 119.442 238.794 115.035 236.203 112.117V112.126Z" fill="black"/>
<path fill-rule="evenodd" clip-rule="evenodd" d="M281.123 117.625C278.335 116.661 275.554 115.413 273.084 113.803C272.456 113.39 271.509 112.564 270.554 111.875C267.111 115.068 266.259 120.56 268.807 125.147C271.767 130.483 278.188 132.584 283.154 129.829C286.864 127.772 288.706 123.589 288.164 119.38C285.78 118.959 283.413 118.416 281.123 117.625Z" fill="black"/>
<path fill-rule="evenodd" clip-rule="evenodd" d="M259.829 152.981C259.829 158.567 257.6 163.095 254.846 163.095C252.092 163.095 249.862 158.567 249.862 152.981C249.862 147.395 252.092 142.859 254.846 142.859C257.6 142.859 259.829 147.387 259.829 152.981Z" fill="black"/>
<path d="M384.976 15.582H428.837C439.321 15.582 447.781 24.103 447.781 34.5261V72.7931C447.781 83.285 439.269 91.7372 428.837 91.7372H384.976C374.492 91.7372 366.032 83.2162 366.032 72.7931V34.5261C366.032 24.0341 374.484 15.582 384.976 15.582Z" stroke="black" stroke-width="0.963989" stroke-miterlimit="10"/>
<path d="M351.15 34.584C350.513 34.584 350.005 34.0762 350.005 33.4393C350.264 19.1344 354.137 9.21907 361.513 4.0118C371.11 -2.78776 382.936 1.08541 383.444 1.21451C384.081 1.40387 384.399 1.98054 384.27 2.60886C384.081 3.24578 383.504 3.56424 382.876 3.43513C382.815 3.43513 382.747 3.43513 382.747 3.37488C382.617 3.31463 371.497 -0.248684 362.847 5.85371C356.108 10.622 352.613 19.9004 352.355 33.4393C352.295 34.0762 351.787 34.584 351.15 34.584Z" fill="black"/>
<path d="M387.007 36.0398L420.351 76.4068C422.089 78.1024 424.887 77.9733 426.419 76.2433C427.865 74.6166 427.796 72.0086 426.178 70.3991C415.496 57.6349 404.824 44.8792 394.142 32.115C392.817 29.6448 389.736 29.0423 387.911 30.4022C386.362 31.5555 385.845 34.0172 387.007 36.0312V36.0398Z" fill="#F23F44"/>
<path d="M426.806 36.0398L393.462 76.4068C391.724 78.1024 388.926 77.9733 387.394 76.2433C385.948 74.6166 386.017 72.0086 387.635 70.3991C398.317 57.6349 408.989 44.8792 419.671 32.115C420.996 29.6448 424.078 29.0423 425.902 30.4022C427.452 31.5555 427.968 34.0172 426.806 36.0312V36.0398Z" fill="#F23F44"/>
<path d="M105.471 317.075C105.152 316.98 104.928 316.739 104.842 316.429C97.5178 273.652 69.5105 237.399 47.3043 214.496C23.282 189.656 0.671321 174.749 0.421717 174.619C0.0257928 174.387 -0.120527 173.879 0.111863 173.483C0.344253 173.087 0.852069 172.941 1.24799 173.174C1.28242 173.185 1.31398 173.214 1.34267 173.26C1.59227 173.389 24.3493 188.408 48.5093 213.394C62.7195 228.086 74.6317 243.269 83.9445 258.573C95.5812 277.706 103.173 297.115 106.435 316.197C106.521 316.687 106.168 317.109 105.746 317.161C105.763 317.109 105.634 317.126 105.479 317.083L105.471 317.075Z" fill="#1D1E1B"/>
<path d="M85.6401 315.501C85.3216 315.406 85.0978 315.165 85.0634 314.864C79.443 287.278 38.4562 257.162 38.0775 256.878C37.6902 256.594 37.6041 256.095 37.8882 255.716C38.1722 255.329 38.6714 255.243 39.0501 255.527C40.7801 256.792 80.9492 286.314 86.7159 314.589C86.8192 315.027 86.518 315.466 86.079 315.57C85.9155 315.527 85.795 315.544 85.6315 315.501H85.6401Z" fill="#1D1E1B"/>
<path d="M433.425 364.441C433.726 364.294 433.907 364.019 433.933 363.692C433.976 320.295 455.493 279.85 473.542 253.547C493.063 225.032 512.851 206.536 513.074 206.364C513.427 206.071 513.488 205.546 513.186 205.184C512.894 204.831 512.369 204.771 512.007 205.072C511.973 205.09 511.947 205.124 511.93 205.176C511.706 205.348 491.798 223.965 472.165 252.661C460.615 269.531 451.422 286.495 444.812 303.15C436.549 323.962 432.323 344.369 432.315 363.726C432.315 364.225 432.728 364.587 433.158 364.561C433.132 364.509 433.261 364.509 433.408 364.441H433.425Z" fill="#1D1E1B"/>
<path d="M452.722 359.557C453.023 359.411 453.204 359.135 453.178 358.834C454.09 330.698 489.44 294.135 489.767 293.782C490.094 293.438 490.102 292.939 489.758 292.603C489.414 292.276 488.915 292.267 488.579 292.612C487.081 294.144 452.446 329.992 451.5 358.834C451.474 359.282 451.844 359.669 452.292 359.695C452.446 359.617 452.567 359.626 452.722 359.549V359.557Z" fill="#1D1E1B"/>
</g>
<defs>
<clipPath id="clip0_26650_259546">
<rect width="513.384" height="364.56" fill="white"/>
</clipPath>
</defs>
</svg>
